<svg width="1615" height="2084" viewBox="0 0 1615 2084" fill="none" xmlns="http://www.w3.org/2000/svg">
<g opacity="0.75" clip-path="url(#clip0)">
<path opacity="0.1" d="M779.151 2081.07C822.031 2076.24 863.652 2065.19 903.299 2046.3C1004.47 1998.09 1057.73 1917.46 1079.72 1883.06C1199.17 1696.21 1113.41 1551.65 1185.39 1361.71C1293.47 1076.33 1602.68 1097.49 1614.76 915.676C1619.93 838.037 1535.57 839.057 1453.83 710.283C1324.88 507.136 1429.39 378.906 1330.33 218.729C1225 48.4139 967.448 -31.8447 770.303 11.6698C726.879 21.2641 589.698 82.7763 382.923 284.086C215.624 446.917 200.003 492.847 181.796 549.528C148.65 652.683 222.702 755.771 295.768 821.638C368.017 886.791 453.912 939.695 507.614 1020.8C536.167 1063.91 553.999 1121.37 528.918 1166.59C500.842 1217.21 434.957 1228.65 378.941 1243.34C216.032 1286.14 46.4869 1413.93 7.38472 1585.3C-35.6311 1773.79 116.626 1888.03 270.278 1955.74C434.65 2028.14 616.209 2099.45 779.151 2081.07Z" fill="url(#paint0_linear)"/>
<path opacity="0.2" d="M83.8875 1496.74C72.623 1544.1 74.733 1586.08 87.2566 1624.16C102.06 1669.06 130.783 1707.48 167.095 1740.27C211.438 1780.32 267.079 1812.09 323.027 1837.07C358.76 1853.02 395.378 1868.84 432.507 1883.47C551.447 1930.36 675.253 1965.02 789.327 1952.1C827.987 1947.71 865.524 1937.81 901.291 1920.86C992.257 1877.76 1040.72 1805.87 1061.07 1774.81C1170.17 1608.37 1094.49 1477.89 1160.95 1307.92C1203.56 1198.91 1278.6 1138.45 1351.22 1091.88C1450.05 1029 1545.51 992.838 1551.53 896.385C1555.99 825.415 1480.41 824.394 1406.83 708.174C1384.03 672.11 1369.09 638.632 1359.15 606.992C1318.55 477.333 1363.1 378.906 1290 262.38C1211.96 137.96 1048.75 63.4177 893.396 55.9668C852.626 54.0275 812.332 56.8854 774.285 64.9827C732.631 73.8285 608.858 131.156 424.271 313.141C275.043 460.015 261.26 503.19 245.299 555.278C216.577 649.077 281.781 742.468 345.318 802.347C348.891 805.716 352.533 809.05 356.208 812.35C412.428 863.077 475.863 906.796 519.525 967.798C522.86 972.459 526.059 977.188 529.156 982.053C550.256 1015.36 564.311 1058.16 553.148 1095.45C551.345 1101.47 548.894 1107.36 545.695 1113C525.991 1147.98 486.787 1162.71 447.242 1174.04C435.093 1177.55 422.944 1180.71 411.271 1184.01C346.917 1202.35 282.359 1235.45 226.854 1280.46C158.042 1336.4 103.694 1410.7 83.8875 1496.74Z" fill="url(#paint1_linear)"/>
<path opacity="0.3" d="M168.728 1422.13C158.008 1465 159.267 1502.76 170.668 1537.77C184.008 1578.63 210.111 1613.64 242.917 1643.55C283.074 1680.19 333.373 1709.31 384.114 1732.35C416.512 1747.04 449.761 1761.54 483.452 1774.91C591.298 1817.64 703.908 1848.91 807.874 1837.03C842.314 1833.12 875.767 1824.31 907.689 1809.37C988.412 1771.4 1032.11 1708.22 1050.83 1680.5C1149.48 1534.44 1084.04 1418.08 1144.92 1268.11C1184.54 1170.54 1253.01 1115.18 1318.59 1071.84C1406.69 1013.59 1491.6 978.923 1496.67 891.111C1500.45 826.775 1433.58 823.747 1368.2 720.047C1347.78 687.59 1334.21 657.412 1324.88 628.902C1287.51 512.75 1324.44 424.156 1258.01 319.98C1185.35 206.073 1037.86 135.409 895.914 125.61C858.683 123.059 821.691 125.134 786.639 132.245C746.754 140.376 636.424 193.485 474.025 356.145C342.834 487.097 330.889 527.481 317.242 574.942C292.909 659.42 349.334 743.081 403.308 796.938C406.37 799.966 409.467 802.96 412.564 805.92C460.446 851.407 514.352 890.499 551.004 944.56C553.795 948.677 556.483 952.896 559.07 957.217C576.698 986.748 588.167 1024.55 577.685 1057.72C575.983 1063.06 573.737 1068.3 570.845 1073.37C552.944 1104.57 518.096 1118.24 483.452 1129.06C472.8 1132.43 462.182 1135.46 452.041 1138.66C396.025 1156.25 341.03 1186.39 293.148 1227.15C233.762 1277.84 186.765 1344.9 168.728 1422.13Z" fill="url(#paint2_linear)"/>
<path opacity="0.4" d="M253.603 1347.52C243.461 1385.9 243.87 1419.44 254.113 1451.39C265.99 1488.2 289.438 1519.84 318.773 1546.86C354.779 1580.06 399.734 1606.6 445.2 1627.66C474.263 1641.1 504.109 1654.26 534.397 1666.38C631.183 1704.99 732.562 1732.82 826.387 1722C856.641 1718.57 885.977 1710.88 914.019 1697.92C984.498 1665.05 1023.4 1610.61 1040.51 1586.22C1128.69 1460.54 1073.56 1358.31 1128.79 1228.31C1165.41 1142.13 1227.38 1092.05 1285.85 1051.8C1363.34 998.418 1437.59 965.008 1441.71 885.838C1444.81 828.136 1386.68 823.101 1329.48 731.955C1311.44 703.104 1299.09 676.227 1290.54 650.812C1256.07 548.303 1285.68 469.439 1225.92 377.613C1158.64 274.254 1026.9 207.4 898.364 195.288C864.673 192.158 830.982 193.349 798.89 199.575C760.741 206.958 663.853 255.882 523.677 399.217C410.522 514.213 400.449 551.841 389.048 594.709C369.072 669.83 416.716 743.795 461.161 791.664C463.679 794.352 466.232 797.006 468.818 799.625C508.397 839.874 552.706 874.338 582.381 921.493C584.627 925.1 586.805 928.774 588.881 932.516C603.073 958.237 611.921 991.069 602.12 1020.12C600.554 1024.82 598.478 1029.41 595.858 1033.83C579.727 1061.26 549.269 1073.84 519.491 1084.19C510.337 1087.39 501.25 1090.35 492.606 1093.37C444.962 1110.21 399.462 1137.36 359.237 1173.87C309.517 1219.29 269.802 1279.14 253.603 1347.52Z" fill="url(#paint3_linear)"/>
<path opacity="0.5" d="M338.478 1272.91C328.881 1306.83 328.473 1336.12 337.593 1365.01C348.041 1397.77 368.834 1426.01 394.664 1450.13C426.517 1479.9 466.096 1503.85 506.355 1522.9C532.083 1535.08 558.56 1546.92 585.444 1557.78C671.17 1592.28 761.285 1616.67 845.003 1606.94C871.037 1603.95 896.322 1597.48 920.485 1586.42C980.823 1558.83 1014.82 1512.97 1030.34 1491.88C1107.9 1386.54 1063.32 1298.46 1112.83 1188.47C1146.49 1113.69 1201.93 1068.91 1253.24 1031.69C1320.15 983.176 1383.69 950.991 1386.85 880.462C1389.23 829.429 1339.89 822.352 1290.85 743.727C1275.2 718.448 1264.17 694.939 1256.31 672.62C1225 583.686 1246.98 514.655 1193.96 435.145C1132.06 342.298 1016.05 279.289 900.951 264.897C870.833 261.155 840.375 261.529 811.312 266.803C774.932 273.437 691.759 318.448 573.465 442.187C478.586 541.43 470.078 576.099 460.991 614.374C445.371 680.105 484.201 744.373 519.185 786.289C521.159 788.636 523.201 790.95 525.209 793.229C556.382 828.306 591.23 858.076 613.895 898.324C615.63 901.386 617.264 904.516 618.829 907.748C629.549 929.693 635.811 957.523 626.657 982.495C625.193 986.51 623.322 990.456 621.007 994.301C606.68 1017.98 580.578 1029.45 555.701 1039.31C548.01 1042.34 540.489 1045.2 533.376 1048.09C494.036 1064.11 458.031 1088.3 425.53 1120.63C385.169 1160.64 352.839 1213.34 338.478 1272.91Z" fill="url(#paint4_linear)"/>
<path opacity="0.6" d="M423.318 1198.3C414.3 1227.73 413.041 1252.84 421.004 1278.62C429.988 1307.34 448.127 1332.18 470.486 1353.41C498.153 1379.77 532.423 1401.11 567.408 1418.18C589.8 1429.14 612.874 1439.65 636.355 1449.21C711.021 1479.59 789.906 1500.55 863.516 1491.88C885.33 1489.36 906.566 1484.02 926.849 1474.93C976.943 1452.48 1006.11 1415.36 1020.06 1397.57C1086.83 1312.51 1053.07 1238.65 1096.77 1148.63C1127.53 1085.24 1176.4 1045.81 1220.57 1011.62C1276.9 968.036 1329.75 937.041 1331.96 875.155C1333.66 830.756 1292.93 821.774 1252.22 755.567C1238.92 733.928 1229.25 713.685 1222.07 694.463C1193.93 619.103 1208.22 559.905 1161.97 492.711C1105.34 410.411 1005.16 351.246 903.503 334.507C876.924 330.186 849.767 329.642 823.665 334.065C789.021 339.917 719.358 380.811 623.219 485.192C546.444 568.546 539.706 600.323 532.9 634.039C521.567 690.346 551.651 744.918 577.141 780.879C578.57 782.886 580.067 784.826 581.565 786.799C604.366 816.637 629.787 841.745 645.374 875.087C646.565 877.638 647.688 880.224 648.743 882.878C655.992 901.012 659.667 923.909 651.193 944.73C649.832 948.099 648.164 951.399 646.123 954.597C633.599 974.5 611.853 984.911 591.842 994.267C585.649 997.159 579.659 999.88 574.044 1002.64C543.075 1017.88 516.565 1039.14 491.687 1067.18C460.889 1102.08 435.876 1147.57 423.318 1198.3Z" fill="url(#paint5_linear)"/>
<path opacity="0.7" d="M508.193 1123.69C499.719 1148.63 497.575 1169.52 504.483 1192.21C511.97 1216.91 527.523 1238.34 546.376 1256.68C569.892 1279.61 598.785 1298.36 628.562 1313.46C647.62 1323.16 667.324 1332.35 687.369 1340.65C750.94 1366.91 818.628 1384.43 882.097 1376.85C899.691 1374.81 916.843 1370.59 933.247 1363.44C973.131 1346.13 997.396 1317.72 1009.82 1303.26C1065.53 1238.38 1043.03 1178.91 1080.74 1108.79C1108.71 1056.77 1150.91 1022.74 1187.94 991.545C1233.74 952.964 1275.84 923.058 1277.1 869.847C1278.12 832.117 1246.1 821.093 1213.6 767.44C1202.67 749.409 1194.34 732.466 1187.84 716.373C1162.89 654.555 1169.39 605.29 1130.02 550.344C1078.63 478.625 994.333 423.237 906.055 404.185C883.016 399.251 859.126 397.822 836.053 401.361C803.144 406.396 746.992 443.208 673.008 528.23C614.337 595.662 609.301 624.615 604.842 653.772C597.696 700.621 619.102 745.428 635.13 775.572C636.015 777.239 637.002 778.838 637.955 780.437C652.418 805.035 668.311 825.55 676.887 851.952C677.534 853.959 678.146 856.034 678.691 858.11C682.468 872.467 683.557 890.363 675.764 907.068C674.505 909.756 673.042 912.409 671.306 915.029C660.552 931.155 643.196 940.546 628.086 949.357C623.39 952.113 618.931 954.733 614.848 957.319C592.217 971.778 575.201 990.082 558.015 1013.86C536.609 1043.53 518.947 1081.77 508.193 1123.69Z" fill="url(#paint6_linear)"/>
<path opacity="0.8" d="M593.067 1049.08C585.172 1069.56 582.177 1086.2 587.929 1105.83C593.986 1126.48 606.85 1144.51 622.232 1159.96C641.562 1179.45 665.146 1195.58 689.683 1208.74C705.405 1217.18 721.707 1225.04 738.382 1232.05C790.893 1254.16 847.351 1268.28 900.678 1261.75C914.053 1260.15 927.121 1257.09 939.678 1251.92C969.32 1239.74 988.684 1220.04 999.608 1208.91C1043.85 1163.97 1033.37 1119.2 1064.74 1068.95C1090.1 1028.32 1125.49 999.778 1155.34 971.438C1190.66 937.926 1221.97 909.075 1222.24 864.506C1222.55 833.41 1199.3 820.379 1174.97 779.246C1166.43 764.787 1159.42 751.178 1153.57 738.181C1131.89 689.904 1130.39 650.642 1098.03 607.876C1051.74 546.806 983.443 495.126 908.608 473.76C889.108 468.215 868.485 465.867 848.406 468.555C817.233 472.739 774.558 505.469 722.728 571.166C682.128 622.642 678.759 648.737 676.751 673.369C673.688 710.725 686.552 745.632 693.086 770.128C693.426 771.455 693.903 772.714 694.277 773.973C700.369 793.297 706.767 809.22 708.332 828.68C708.468 830.177 708.536 831.674 708.57 833.239C708.877 843.786 707.379 856.715 700.267 869.303C699.144 871.31 697.85 873.352 696.387 875.359C687.437 887.709 674.437 896.045 664.193 904.346C660.96 906.966 658.068 909.449 655.481 911.933C641.154 925.644 633.701 940.988 624.172 960.517C612.329 984.979 601.984 1016.01 593.067 1049.08Z" fill="url(#paint7_linear)"/>
<path opacity="0.9" d="M677.908 974.466C670.557 990.456 666.814 1002.87 671.34 1019.44C675.968 1036.05 686.178 1050.68 698.055 1063.26C713.233 1079.36 731.44 1092.86 750.736 1104.02C763.123 1111.2 776.055 1117.73 789.293 1123.48C830.744 1141.48 875.938 1152.16 919.192 1146.69C928.346 1145.56 937.33 1143.59 946.008 1140.43C965.406 1133.32 979.666 1122.29 989.331 1114.6C1021.35 1089.02 1024.25 1059.83 1048.68 1029.11C1071.82 1000.05 1100.14 976.882 1122.67 951.365C1147.65 923.092 1168.03 895.092 1167.35 859.164C1166.98 834.702 1152.51 819.631 1136.31 791.086C1130.15 780.233 1124.5 769.924 1119.3 760.058C1100.99 725.287 1091.29 696.164 1066 665.476C1024.62 615.225 972.519 567.117 911.126 543.438C895.165 537.314 877.843 533.98 860.759 535.885C831.322 539.151 802.089 567.798 772.482 614.238C749.885 649.689 748.081 672.995 748.66 693.136C749.442 720.966 754.411 745.768 751.076 764.821C750.906 765.773 750.804 766.726 750.667 767.645C748.489 781.662 745.256 793.093 739.845 805.579C739.437 806.532 738.995 807.519 738.518 808.505C735.353 815.276 731.27 823.203 724.804 831.708C723.783 833.069 722.694 834.43 721.537 835.825C714.39 844.433 705.78 851.748 700.403 859.505C698.667 861.988 697.306 864.37 696.251 866.683C690.296 879.714 692.337 892.098 690.466 907.272C688.084 926.495 685.021 950.208 677.908 974.466Z" fill="url(#paint8_linear)"/>
<path d="M762.783 899.855C756.01 911.355 751.382 919.588 754.819 933.061C758.018 945.615 765.539 956.876 773.945 966.539C792.05 987.36 815.225 1003.49 840.307 1014.95C870.697 1028.83 904.66 1036.08 937.773 1031.69C972.485 1027.1 1004.47 1010.05 1032.65 989.3C1054.67 973.105 1075.12 954.223 1090.03 931.326C1104.94 908.429 1114.12 881.177 1112.49 853.891C1110.93 827.932 1099.83 803.334 1085.06 781.934C1070.29 760.534 1051.95 741.924 1034.05 723.075C997.056 684.154 961.697 639.074 913.712 613.081C901.291 606.345 887.236 602.024 873.147 603.147C825.945 606.957 812.06 675.172 820.602 712.835C824.958 732.125 822.848 747.878 807.024 761.282C796.678 770.06 783.644 776.831 771.325 782.444C763.77 785.881 755.976 789.045 749.34 794.046C742.704 799.047 737.293 806.294 736.578 814.561C735.217 830.382 750.055 841.099 756.691 853.925C763.974 867.942 768.058 884.409 762.783 899.855Z" fill="url(#paint9_linear)"/>
</g>
<defs>
<linearGradient id="paint0_linear" x1="1333.83" y1="1647.2" x2="176.729" y2="489.786" gradientUnits="userSpaceOnUse">
<stop stop-color="#11B77A"/>
<stop offset="1" stop-color="#3BFFF2"/>
</linearGradient>
<linearGradient id="paint1_linear" x1="1292.19" y1="1559.02" x2="235.366" y2="501.904" gradientUnits="userSpaceOnUse">
<stop stop-color="#11B77A"/>
<stop offset="1" stop-color="#3BFFF2"/>
</linearGradient>
<linearGradient id="paint2_linear" x1="1258.93" y1="1484.79" x2="302.28" y2="527.877" gradientUnits="userSpaceOnUse">
<stop stop-color="#11B77A"/>
<stop offset="1" stop-color="#3BFFF2"/>
</linearGradient>
<linearGradient id="paint3_linear" x1="1225.69" y1="1410.59" x2="369.052" y2="553.715" gradientUnits="userSpaceOnUse">
<stop stop-color="#11B77A"/>
<stop offset="1" stop-color="#3BFFF2"/>
</linearGradient>
<linearGradient id="paint4_linear" x1="1192.52" y1="1336.46" x2="435.704" y2="579.441" gradientUnits="userSpaceOnUse">
<stop stop-color="#11B77A"/>
<stop offset="1" stop-color="#3BFFF2"/>
</linearGradient>
<linearGradient id="paint5_linear" x1="1159.38" y1="1262.38" x2="502.088" y2="604.912" gradientUnits="userSpaceOnUse">
<stop stop-color="#11B77A"/>
<stop offset="1" stop-color="#3BFFF2"/>
</linearGradient>
<linearGradient id="paint6_linear" x1="1126.36" y1="1188.44" x2="568.055" y2="629.987" gradientUnits="userSpaceOnUse">
<stop stop-color="#11B77A"/>
<stop offset="1" stop-color="#3BFFF2"/>
</linearGradient>
<linearGradient id="paint7_linear" x1="1093.7" y1="1114.9" x2="633.319" y2="654.392" gradientUnits="userSpaceOnUse">
<stop stop-color="#11B77A"/>
<stop offset="1" stop-color="#3BFFF2"/>
</linearGradient>
<linearGradient id="paint8_linear" x1="1062.32" y1="1042.68" x2="697.514" y2="677.777" gradientUnits="userSpaceOnUse">
<stop stop-color="#11B77A"/>
<stop offset="1" stop-color="#3BFFF2"/>
</linearGradient>
<linearGradient id="paint9_linear" x1="1043.82" y1="983.013" x2="760.629" y2="699.746" gradientUnits="userSpaceOnUse">
<stop stop-color="#11B77A"/>
<stop offset="1" stop-color="#3BFFF2"/>
</linearGradient>
<clipPath id="clip0">
<rect width="2084" height="1615" fill="white" transform="translate(1615 0.00012207) rotate(90)"/>
</clipPath>
</defs>
</svg>
